PathFileType	4	(X/Y/Z)	/Users/rkoike/Documents/python/sports2d/webcam_20250611_152632/webcam_20250611_152632_px_person00.trc
DataRate	CameraRate	NumFrames	NumMarkers	Units	OrigDataRate	OrigDataStartFrame	OrigNumFrames
30	30	7	22	m	30	1242	2485
Frame#	Time	Hip			RHip			RKnee			RAnkle			RBigToe			RSmallToe			RHeel			LHip			LKnee			LAnkle			LBigToe			LSmallToe			LHeel			Neck			Head			Nose			RShoulder			RElbow			RWrist			LShoulder			LElbow			LWrist			
		X1	Y1	Z1	X2	Y2	Z2	X3	Y3	Z3	X4	Y4	Z4	X5	Y5	Z5	X6	Y6	Z6	X7	Y7	Z7	X8	Y8	Z8	X9	Y9	Z9	X10	Y10	Z10	X11	Y11	Z11	X12	Y12	Z12	X13	Y13	Z13	X14	Y14	Z14	X15	Y15	Z15	X16	Y16	Z16	X17	Y17	Z17	X18	Y18	Z18	X19	Y19	Z19	X20	Y20	Z20	X21	Y21	Z21	X22	Y22	Z22
1242	41.416666666666664	738.4130172510254	476.34221950319323	0.0	870.8314148631572	514.8973896221421	0.0	1215.63037109375	688.15625	0.0	1218.9191013795391	568.2777270037494	0.0	1542.379638671875	-85.56250000000003	0.0	1428.8417659489583	66.76515266476912	0.0	1088.2808869644264	727.0980207781423	0.0	613.2722911931809	505.2082438377522	0.0	630.117104972329	709.78174984784	0.0	1197.5478093577585	582.8657030942122	0.0			0.0			0.0			0.0	762.5768468418141	26.242850598032764	0.0	1241.5215472140378	-85.12651511389546	0.0	1227.7128906985665	28.795898835109906	0.0	1020.1508103994169	9.376335730930373	0.0	1094.6966431715055	201.94674460438773	0.0	1056.1867377513267	514.9153654234634	0.0	517.025596951963	19.023440841043804	0.0	478.4764054325728	250.07950890745593	0.0	562.7722096311581	490.72355244166937	0.0
1243	41.45001341921631	738.4114086598715	476.35751597068617	0.0	870.8251228036834	514.8844893565295	0.0	1215.63037109375	688.15625	0.0	1218.9189025763712	568.2778714432801	0.0	1542.379638671875	-85.56250000000003	0.0	1428.8418075016134	66.77103579203624	0.0	1088.2808869644264	727.0980207781423	0.0	613.2616994422896	505.2426836024523	0.0	630.1094705095385	709.8440880005568	0.0	1197.5478769412944	582.8657346876897	0.0			0.0			0.0			0.0	762.517411197984	26.216697585861798	0.0	1241.5214576863143	-85.1244573836845	0.0	1227.7128903918037	28.795897784310142	0.0	1020.0844685875217	9.36358103564776	0.0	1094.6895604375952	201.94205586354366	0.0	1056.1747887444	514.8866593604173	0.0	516.9849171884854	18.99594687951189	0.0	478.46290388995914	250.0820852678483	0.0	562.7221372579015	490.78890947768906	0.0
1244	41.483360171765966	738.4116726651855	476.3636611980113	0.0	870.825006257451	514.8807655759318	0.0	1215.63037109375	688.15625	0.0	1218.9180676545916	568.2784427653072	0.0	1542.379638671875	-85.56250000000003	0.0	1428.8419748631	66.7947312435895	0.0	1088.2808869644264	727.0980207781423	0.0	613.2604481868199	505.259170876644	0.0	630.1093409592353	709.8702410696577	0.0	1197.5481149882487	582.865845261244	0.0			0.0			0.0			0.0	762.4784753399503	26.20601000118657	0.0	1241.5211131012309	-85.11623857091867	0.0	1227.7128898092392	28.795895174322446	0.0	1020.0573948034151	9.358138692255185	0.0	1094.6873635433967	201.9412612300115	0.0	1056.1702750997185	514.8747069140102	0.0	516.9715807561913	18.98416552996315	0.0	478.46173624452257	250.08439213266095	0.0	562.7041529870844	490.8172964768014	0.0
1245	41.51670692431561	738.4120852097999	476.36293673906476	0.0	870.8302536981367	514.8834209165744	0.0	1215.63037109375	688.15625	0.0	1218.917507315046	568.2787832875192	0.0	1542.379638671875	-85.56250000000003	0.0	1428.8420784911277	66.80940315505937	0.0	1088.2808869644264	727.0980207781423	0.0	613.2685137834098	505.2601247306761	0.0	630.1167317566931	709.867369948923	0.0	1197.548219072496	582.8658925836878	0.0			0.0			0.0			0.0	762.4757259074834	26.207181816764702	0.0	1241.5209200324616	-85.11123720457249	0.0	1227.7128902764593	28.795895615236258	0.0	1020.0627695765777	9.358765805147444	0.0	1094.6896150631526	201.9430499143542	0.0	1056.1724194008955	514.8763997886717	0.0	516.9822469858628	18.9851677680811	0.0	478.47205123757703	250.0853215629923	0.0	562.7140616080218	490.8157491029789	0.0
1246	41.55005367686527	738.4121859599405	476.36146569958214	0.0	870.7768816200021	514.8652440377932	0.0	1215.63037109375	688.15625	0.0	1218.9207137021542	568.2765082415534	0.0	1542.379638671875	-85.56250000000003	0.0	1428.8414193607064	66.71608184626753	0.0	1088.2808869644264	727.0980207781423	0.0	613.1855303753114	505.23625833609253	0.0	630.0403516416635	709.8655631291768	0.0	1197.5471998234646	582.8654172050042	0.0			0.0			0.0			0.0	762.4823341699589	26.209707631702717	0.0	1241.522315430634	-85.14377121775433	0.0	1227.7128941332242	28.795909776088752	0.0	1020.0379794863053	9.35794891008362	0.0	1094.6681682573223	201.9284931736211	0.0	1056.1539855226247	514.8726729408907	0.0	516.8869502717694	18.98808856249558	0.0	478.36804463251303	250.07793526567414	0.0	562.6307616230282	490.7995254111256	0.0
1247	41.583400429414915	738.4121424071582	476.3610639706651	0.0	870.6309841726195	514.8127902354179	0.0	1215.63037109375	688.15625	0.0	1218.929626099128	568.2704759678145	0.0	1542.379638671875	-85.56250000000003	0.0	1428.8396462917372	66.46504637372037	0.0	1088.2808869644264	727.0980207781423	0.0	612.95764077334	505.17944338847485	0.0	629.8309861287831	709.8753925545802	0.0	1197.544744838304	582.864278441015	0.0			0.0			0.0			0.0	762.4853144859943	26.210411529567914	0.0	1241.5259346835865	-85.23070793330736	0.0	1227.7128990253761	28.795934247612532	0.0	1019.9550342812105	9.352816045802955	0.0	1094.6083864237494	201.8878071989662	0.0	1056.1012842983996	514.8558391475106	0.0	516.6184861577701	18.989573963570738	0.0	478.0823152191425	250.0583198448577	0.0	562.3928196119613	490.7709008904646	0.0
1248	41.61674718196457	738.4121065847521	476.36120357347664	0.0	870.6339359849129	514.8131978148133	0.0	1215.63037109375	688.15625	0.0	1218.9300703309518	568.2707106561902	0.0	1542.379638671875	-85.56250000000003	0.0	1428.8396663764138	66.46789001170943	0.0	1088.2808869644264	727.0980207781423	0.0	612.9607276278971	505.1800957970906	0.0	629.8336110393768	709.8757828307785	0.0	1197.5453171356035	582.8645571429261	0.0			0.0			0.0			0.0	762.4851217915376	26.21017704489038	0.0	1241.525638562707	-85.22862170293054	0.0	1227.7128885615534	28.795908111025124	0.0	1019.9557996418685	9.352991876045866	0.0	1094.6094386299344	201.88816488228832	0.0	1056.1023121605144	514.8559849947209	0.0	516.6218444426031	18.989444266389075	0.0	478.0860097865207	250.0581631078705	0.0	562.3960132721994	490.771768772975	0.0
